<svg width="85" height="24" viewBox="0 0 85 24" fill="none" xmlns="http://www.w3.org/2000/svg">
<path d="M75.6489 19.9996V7.99959H79.2489L79.4169 10.5916C79.7209 9.69559 80.1689 8.99959 80.7609 8.50359C81.3689 8.00759 82.1369 7.75959 83.0649 7.75959C83.3689 7.75959 83.6249 7.78359 83.8329 7.83159C84.0569 7.87959 84.2329 7.94359 84.3609 8.02359L83.9529 11.3836C83.7929 11.3196 83.5849 11.2716 83.3289 11.2396C83.0889 11.1916 82.7929 11.1676 82.4409 11.1676C81.9609 11.1676 81.5129 11.2716 81.0969 11.4796C80.6809 11.6876 80.3449 11.9996 80.0889 12.4156C79.8489 12.8156 79.7289 13.3276 79.7289 13.9516V19.9996H75.6489Z" fill="black"/>
<path d="M68.5665 20.2396C67.2385 20.2396 66.0865 19.9916 65.1105 19.4956C64.1505 18.9996 63.4065 18.2876 62.8785 17.3596C62.3505 16.4316 62.0865 15.3116 62.0865 13.9996C62.0865 12.6876 62.3505 11.5676 62.8785 10.6396C63.4065 9.71159 64.1425 8.99959 65.0865 8.50359C66.0465 8.00759 67.1425 7.75959 68.3745 7.75959C69.6385 7.75959 70.7105 8.00759 71.5905 8.50359C72.4865 8.98359 73.1665 9.65559 73.6305 10.5196C74.0945 11.3676 74.3265 12.3436 74.3265 13.4476C74.3265 13.7356 74.3185 14.0236 74.3025 14.3116C74.2865 14.5996 74.2625 14.8396 74.2305 15.0316H64.7265V12.8476H72.4305L70.4865 13.5916C70.4865 12.6316 70.3105 11.8956 69.9585 11.3836C69.6225 10.8716 69.0945 10.6156 68.3745 10.6156C67.8625 10.6156 67.4225 10.7356 67.0545 10.9756C66.7025 11.2156 66.4305 11.5916 66.2385 12.1036C66.0625 12.6156 65.9745 13.2716 65.9745 14.0716C65.9745 14.8556 66.0785 15.4956 66.2865 15.9916C66.4945 16.4716 66.7905 16.8236 67.1745 17.0476C67.5585 17.2556 68.0225 17.3596 68.5665 17.3596C69.1745 17.3596 69.6545 17.2396 70.0065 16.9996C70.3745 16.7596 70.6465 16.4236 70.8225 15.9916L74.0865 17.0716C73.8625 17.7596 73.4705 18.3436 72.9105 18.8236C72.3665 19.2876 71.7105 19.6396 70.9425 19.8796C70.1905 20.1196 69.3985 20.2396 68.5665 20.2396Z" fill="black"/>
<path d="M58.2099 4.18359V15.7276C58.2099 16.3036 58.3459 16.7196 58.6179 16.9756C58.9059 17.2156 59.2979 17.3356 59.7939 17.3356C60.1779 17.3356 60.5059 17.2956 60.7779 17.2156C61.0659 17.1196 61.3219 16.9836 61.5459 16.8076L61.9779 19.3276C61.5779 19.6156 61.0739 19.8396 60.4659 19.9996C59.8579 20.1596 59.2339 20.2396 58.5939 20.2396C57.6819 20.2396 56.8899 20.1116 56.2179 19.8556C55.5619 19.5996 55.0499 19.1916 54.6819 18.6316C54.3299 18.0716 54.1459 17.3276 54.1299 16.3996V5.31159L58.2099 4.18359ZM61.7859 7.99959V10.9036H52.0659V7.99959H61.7859Z" fill="black"/>
<path d="M43.3505 20.2396C42.5345 20.2396 41.8145 20.1036 41.1905 19.8316C40.5825 19.5436 40.1025 19.0876 39.7505 18.4636C39.3985 17.8396 39.2225 17.0236 39.2225 16.0156V7.99959H43.3025V15.0556C43.3025 15.8236 43.4545 16.3596 43.7585 16.6636C44.0625 16.9676 44.4945 17.1196 45.0545 17.1196C45.3425 17.1196 45.6145 17.0716 45.8705 16.9756C46.1265 16.8636 46.3505 16.7036 46.5425 16.4956C46.7345 16.2716 46.8785 15.9916 46.9745 15.6556C47.0865 15.3036 47.1425 14.8956 47.1425 14.4316V7.99959H51.2225V19.9996H47.5745L47.4545 17.7436C47.0705 18.5916 46.5345 19.2236 45.8465 19.6396C45.1585 20.0396 44.3265 20.2396 43.3505 20.2396Z" fill="black"/>
<path d="M31.5994 7.75959C32.8634 7.75959 33.9674 8.00759 34.9114 8.50359C35.8714 8.98359 36.6154 9.69559 37.1434 10.6396C37.6874 11.5676 37.9594 12.6876 37.9594 13.9996C37.9594 15.3116 37.6874 16.4396 37.1434 17.3836C36.6154 18.3116 35.8714 19.0236 34.9114 19.5196C33.9674 19.9996 32.8634 20.2396 31.5994 20.2396C30.3674 20.2396 29.2714 19.9996 28.3114 19.5196C27.3514 19.0236 26.5994 18.3116 26.0554 17.3836C25.5274 16.4396 25.2634 15.3116 25.2634 13.9996C25.2634 12.6876 25.5274 11.5676 26.0554 10.6396C26.5994 9.69559 27.3514 8.98359 28.3114 8.50359C29.2714 8.00759 30.3674 7.75959 31.5994 7.75959ZM31.5994 10.6636C31.1354 10.6636 30.7354 10.7756 30.3994 10.9996C30.0634 11.2236 29.8074 11.5836 29.6314 12.0796C29.4554 12.5756 29.3674 13.2156 29.3674 13.9996C29.3674 14.7836 29.4554 15.4236 29.6314 15.9196C29.8074 16.3996 30.0634 16.7596 30.3994 16.9996C30.7354 17.2236 31.1354 17.3356 31.5994 17.3356C32.0794 17.3356 32.4874 17.2236 32.8234 16.9996C33.1594 16.7596 33.4154 16.3996 33.5914 15.9196C33.7674 15.4236 33.8554 14.7836 33.8554 13.9996C33.8554 13.2156 33.7674 12.5756 33.5914 12.0796C33.4154 11.5836 33.1594 11.2236 32.8234 10.9996C32.4874 10.7756 32.0794 10.6636 31.5994 10.6636Z" fill="black"/>
<path d="M18.9182 7.75959C20.1342 7.75959 21.1422 7.93559 21.9422 8.28759C22.7582 8.62359 23.3902 9.07959 23.8382 9.65559C24.3022 10.2156 24.5902 10.8236 24.7022 11.4796L20.9342 12.7276C20.8222 12.0396 20.6142 11.5276 20.3102 11.1916C20.0222 10.8396 19.5982 10.6636 19.0382 10.6636C18.5262 10.6636 18.0942 10.7836 17.7422 11.0236C17.4062 11.2476 17.1502 11.6156 16.9742 12.1276C16.7982 12.6236 16.7102 13.2636 16.7102 14.0476C16.7102 14.8316 16.8062 15.4716 16.9982 15.9676C17.1902 16.4476 17.4622 16.7996 17.8142 17.0236C18.1662 17.2316 18.5822 17.3356 19.0622 17.3356C19.4622 17.3356 19.7902 17.2636 20.0462 17.1196C20.3182 16.9596 20.5422 16.7356 20.7182 16.4476C20.8942 16.1596 21.0062 15.8076 21.0542 15.3916L24.7262 16.5676C24.6142 17.2716 24.3102 17.9036 23.8142 18.4636C23.3342 19.0076 22.6942 19.4396 21.8942 19.7596C21.0942 20.0796 20.1582 20.2396 19.0862 20.2396C17.7742 20.2396 16.6302 19.9996 15.6542 19.5196C14.6782 19.0236 13.9262 18.3116 13.3982 17.3836C12.8702 16.4396 12.6062 15.3116 12.6062 13.9996C12.6062 12.6876 12.8702 11.5676 13.3982 10.6396C13.9262 9.69559 14.6622 8.98359 15.6062 8.50359C16.5662 8.00759 17.6702 7.75959 18.9182 7.75959Z" fill="black"/>
<path d="M6.50361 20.2396C5.30361 20.2396 4.18361 20.0476 3.14361 19.6636C2.11961 19.2636 1.27161 18.6956 0.599609 17.9596L2.51961 15.7036C2.91961 16.2156 3.44761 16.6476 4.10361 16.9996C4.77561 17.3356 5.51961 17.5036 6.33561 17.5036C6.83161 17.5036 7.23961 17.4316 7.55961 17.2876C7.87961 17.1436 8.03961 16.9196 8.03961 16.6156C8.03961 16.3916 7.95961 16.2156 7.79961 16.0876C7.63961 15.9436 7.31961 15.8236 6.83961 15.7276L5.15961 15.3916C3.65561 15.0876 2.58361 14.6396 1.94361 14.0476C1.31961 13.4396 1.00761 12.6476 1.00761 11.6716C1.00761 11.0156 1.20761 10.3916 1.60761 9.79959C2.00761 9.19159 2.62361 8.70359 3.45561 8.33559C4.28761 7.95159 5.35161 7.75959 6.64761 7.75959C7.86361 7.75959 8.93561 7.93559 9.86361 8.28759C10.7916 8.63959 11.5276 9.15159 12.0716 9.82359L10.1276 12.0316C9.74361 11.5516 9.24761 11.1756 8.63961 10.9036C8.03161 10.6316 7.42361 10.4956 6.81561 10.4956C6.43161 10.4956 6.10361 10.5356 5.83161 10.6156C5.57561 10.6796 5.38361 10.7756 5.25561 10.9036C5.12761 11.0316 5.06361 11.1916 5.06361 11.3836C5.06361 11.5916 5.15961 11.7756 5.35161 11.9356C5.55961 12.0796 5.93561 12.2076 6.47961 12.3196L8.66361 12.7516C9.89561 12.9756 10.7836 13.3836 11.3276 13.9756C11.8716 14.5676 12.1436 15.2796 12.1436 16.1116C12.1436 16.8956 11.9356 17.5996 11.5196 18.2236C11.1036 18.8476 10.4796 19.3436 9.64761 19.7116C8.81561 20.0636 7.76761 20.2396 6.50361 20.2396Z" fill="black"/>
</svg>
