<svg width="91" height="24" viewBox="0 0 91 24" fill="none" xmlns="http://www.w3.org/2000/svg">
<g clip-path="url(#clip0_519_14)">
<path d="M9.936 5.35938L2.688 17.8714H0L7.248 5.35938H9.936Z" fill="black"/>
<path d="M11.2979 5.35975L8.031 19.4394H5.631L8.89941 5.35938L11.2979 5.35975Z" fill="black"/>
<path d="M10.2604 5.35938H12.6444L14.5004 17.8714H12.1164L10.2604 5.35938Z" fill="black"/>
<path d="M24.52 5.59766C25.72 5.59766 26.7733 5.80432 27.68 6.21766C28.5867 6.63099 29.36 7.24432 30 8.05766L28.46 9.83766C27.9133 9.14432 27.3133 8.63766 26.66 8.31766C26.02 7.98432 25.2733 7.81766 24.42 7.81766C23.86 7.81766 23.3933 7.89099 23.02 8.03766C22.66 8.18432 22.3933 8.37766 22.22 8.61766C22.06 8.85766 21.98 9.12432 21.98 9.41766C21.98 9.77766 22.12 10.0843 22.4 10.3377C22.68 10.5777 23.16 10.7777 23.84 10.9377L26.3 11.4977C27.6067 11.791 28.54 12.231 29.1 12.8177C29.6733 13.391 29.96 14.1377 29.96 15.0577C29.96 15.9243 29.7333 16.671 29.28 17.2977C28.8267 17.911 28.1933 18.3843 27.38 18.7177C26.5667 19.0377 25.6333 19.1977 24.58 19.1977C23.66 19.1977 22.8133 19.091 22.04 18.8777C21.28 18.651 20.6 18.3443 20 17.9577C19.4 17.571 18.9 17.1243 18.5 16.6177L20.06 14.7577C20.3667 15.1843 20.7467 15.5643 21.2 15.8977C21.6533 16.231 22.1667 16.4977 22.74 16.6977C23.3267 16.8843 23.94 16.9777 24.58 16.9777C25.1267 16.9777 25.5867 16.9177 25.96 16.7977C26.3467 16.6643 26.6333 16.4843 26.82 16.2577C27.02 16.0177 27.12 15.731 27.12 15.3977C27.12 15.051 27 14.7577 26.76 14.5177C26.5333 14.2643 26.1067 14.071 25.48 13.9377L22.8 13.3377C22.0267 13.151 21.36 12.911 20.8 12.6177C20.2533 12.311 19.8333 11.9243 19.54 11.4577C19.26 10.9777 19.12 10.411 19.12 9.75766C19.12 8.97099 19.3333 8.26432 19.76 7.63766C20.1867 7.01099 20.8 6.51766 21.6 6.15766C22.4133 5.78432 23.3867 5.59766 24.52 5.59766Z" fill="black"/>
<path d="M36.0311 8.79766C36.9244 8.79766 37.6778 8.93099 38.2911 9.19766C38.9178 9.45099 39.4178 9.80432 39.7911 10.2577C40.1778 10.6977 40.4511 11.191 40.6111 11.7377L38.0511 12.6577C37.9178 12.0577 37.6911 11.6043 37.3711 11.2977C37.0511 10.991 36.6178 10.8377 36.0711 10.8377C35.5644 10.8377 35.1311 10.9577 34.7711 11.1977C34.4111 11.4243 34.1378 11.7777 33.9511 12.2577C33.7644 12.7243 33.6711 13.311 33.6711 14.0177C33.6711 14.7243 33.7644 15.311 33.9511 15.7777C34.1511 16.2443 34.4311 16.591 34.7911 16.8177C35.1644 17.0443 35.5978 17.1577 36.0911 17.1577C36.4911 17.1577 36.8311 17.091 37.1111 16.9577C37.3911 16.811 37.6178 16.6043 37.7911 16.3377C37.9778 16.071 38.1044 15.751 38.1711 15.3777L40.6511 16.1777C40.5044 16.7777 40.2311 17.3043 39.8311 17.7577C39.4311 18.211 38.9178 18.5643 38.2911 18.8177C37.6644 19.071 36.9378 19.1977 36.1111 19.1977C35.0844 19.1977 34.1778 18.991 33.3911 18.5777C32.6044 18.1643 31.9978 17.571 31.5711 16.7977C31.1444 16.0243 30.9311 15.091 30.9311 13.9977C30.9311 12.9043 31.1444 11.971 31.5711 11.1977C31.9978 10.4243 32.5978 9.83099 33.3711 9.41766C34.1444 9.00432 35.0311 8.79766 36.0311 8.79766Z" fill="black"/>
<path d="M46.5402 8.79766C47.5535 8.79766 48.4402 9.00432 49.2002 9.41766C49.9735 9.83099 50.5735 10.4243 51.0002 11.1977C51.4402 11.971 51.6602 12.9043 51.6602 13.9977C51.6602 15.0777 51.4402 16.011 51.0002 16.7977C50.5735 17.571 49.9735 18.1643 49.2002 18.5777C48.4402 18.991 47.5535 19.1977 46.5402 19.1977C45.5402 19.1977 44.6535 18.991 43.8802 18.5777C43.1068 18.1643 42.5002 17.571 42.0602 16.7977C41.6335 16.011 41.4202 15.0777 41.4202 13.9977C41.4202 12.9043 41.6335 11.971 42.0602 11.1977C42.5002 10.4243 43.1068 9.83099 43.8802 9.41766C44.6535 9.00432 45.5402 8.79766 46.5402 8.79766ZM46.5402 10.8377C46.0335 10.8377 45.6002 10.9577 45.2402 11.1977C44.8935 11.4243 44.6268 11.771 44.4402 12.2377C44.2535 12.7043 44.1602 13.291 44.1602 13.9977C44.1602 14.7043 44.2535 15.291 44.4402 15.7577C44.6268 16.2243 44.8935 16.5777 45.2402 16.8177C45.6002 17.0443 46.0335 17.1577 46.5402 17.1577C47.0335 17.1577 47.4535 17.0443 47.8002 16.8177C48.1602 16.5777 48.4335 16.2243 48.6202 15.7577C48.8068 15.291 48.9002 14.7043 48.9002 13.9977C48.9002 13.291 48.8068 12.7043 48.6202 12.2377C48.4335 11.771 48.1602 11.4243 47.8002 11.1977C47.4535 10.9577 47.0335 10.8377 46.5402 10.8377Z" fill="black"/>
<path d="M56.6328 19.1977C55.9661 19.1977 55.3661 19.0777 54.8328 18.8377C54.2995 18.5977 53.8728 18.2177 53.5528 17.6977C53.2461 17.1643 53.0928 16.4777 53.0928 15.6377V8.99766H55.8328V14.9777C55.8328 15.751 55.9928 16.291 56.3128 16.5977C56.6328 16.891 57.0928 17.0377 57.6928 17.0377C57.9728 17.0377 58.2461 16.991 58.5128 16.8977C58.7795 16.791 59.0128 16.631 59.2128 16.4177C59.4261 16.2043 59.5928 15.931 59.7128 15.5977C59.8328 15.251 59.8928 14.8443 59.8928 14.3777V8.99766H62.6328V18.9977H60.1928L60.0928 17.2577C59.7595 17.9243 59.2995 18.4177 58.7128 18.7377C58.1395 19.0443 57.4461 19.1977 56.6328 19.1977Z" fill="black"/>
<path d="M68.2561 5.93766V15.7377C68.2561 16.2177 68.3761 16.571 68.6161 16.7977C68.8694 17.011 69.2094 17.1177 69.6361 17.1177C69.9694 17.1177 70.2628 17.071 70.5161 16.9777C70.7694 16.871 70.9961 16.731 71.1961 16.5577L71.6361 18.3777C71.3161 18.631 70.9161 18.831 70.4361 18.9777C69.9561 19.1243 69.4494 19.1977 68.9161 19.1977C68.2494 19.1977 67.6561 19.0977 67.1361 18.8977C66.6294 18.6977 66.2294 18.3777 65.9361 17.9377C65.6561 17.4977 65.5161 16.911 65.5161 16.1777V6.69766L68.2561 5.93766ZM71.4561 8.99766V11.0377H63.6761V8.99766H71.4561Z" fill="black"/>
<path d="M77.1498 19.1977C76.0965 19.1977 75.1765 18.991 74.3898 18.5777C73.6165 18.1643 73.0165 17.571 72.5898 16.7977C72.1632 16.0243 71.9498 15.091 71.9498 13.9977C71.9498 12.9043 72.1632 11.971 72.5898 11.1977C73.0165 10.4243 73.6098 9.83099 74.3698 9.41766C75.1432 9.00432 76.0232 8.79766 77.0098 8.79766C78.0232 8.79766 78.8832 9.00432 79.5898 9.41766C80.2965 9.81766 80.8365 10.371 81.2098 11.0777C81.5832 11.771 81.7698 12.5643 81.7698 13.4577C81.7698 13.7243 81.7632 13.9777 81.7498 14.2177C81.7365 14.4577 81.7165 14.671 81.6898 14.8577H73.7098V12.9577H80.4898L79.1698 13.4377C79.1698 12.5977 78.9765 11.951 78.5898 11.4977C78.2165 11.0443 77.6832 10.8177 76.9898 10.8177C76.4832 10.8177 76.0432 10.9377 75.6698 11.1777C75.3098 11.4177 75.0365 11.7777 74.8498 12.2577C74.6632 12.7243 74.5698 13.3177 74.5698 14.0377C74.5698 14.7443 74.6698 15.331 74.8698 15.7977C75.0832 16.251 75.3765 16.591 75.7498 16.8177C76.1365 17.0443 76.5965 17.1577 77.1298 17.1577C77.7165 17.1577 78.1898 17.0443 78.5498 16.8177C78.9098 16.591 79.1898 16.2777 79.3898 15.8777L81.5698 16.7177C81.3565 17.2377 81.0298 17.6843 80.5898 18.0577C80.1632 18.431 79.6498 18.7177 79.0498 18.9177C78.4632 19.1043 77.8298 19.1977 77.1498 19.1977Z" fill="black"/>
<path d="M83.2919 18.9977V8.99766H85.6719L85.8519 10.9577C86.1185 10.2643 86.5052 9.73099 87.0119 9.35766C87.5319 8.98432 88.1785 8.79766 88.9519 8.79766C89.1785 8.79766 89.3852 8.81766 89.5719 8.85766C89.7585 8.89766 89.9119 8.95099 90.0319 9.01766L89.7119 11.3177C89.5785 11.2643 89.4119 11.2243 89.2119 11.1977C89.0252 11.171 88.7785 11.1577 88.4719 11.1577C88.0719 11.1577 87.6852 11.2577 87.3119 11.4577C86.9385 11.6443 86.6319 11.9377 86.3919 12.3377C86.1519 12.7243 86.0319 13.2177 86.0319 13.8177V18.9977H83.2919Z" fill="black"/>
</g>
<defs>
<clipPath id="clip0_519_14">
<rect width="91" height="24" fill="white"/>
</clipPath>
</defs>
</svg>
