<svg width="48" height="48" viewBox="0 0 48 48" fill="none" xmlns="http://www.w3.org/2000/svg">
<mask id="path-1-inside-1_527_117" fill="white">
<path fill-rule="evenodd" clip-rule="evenodd" d="M8 0C3.58172 0 0 3.58172 0 8V40C0 44.4183 3.58172 48 8 48H40C44.4183 48 48 44.4183 48 40V8C48 3.58172 44.4183 0 40 0H8ZM30.4139 7.5L30.4137 7.50037L31.162 7.50049L31.1619 7.5H36.6598L40.94 36.3545H35.4422L32.0951 13.7907L26.0207 39.9706H20.4859L26.4249 14.3861L13.6989 36.3545H7.5L24.215 7.5H28.0234H30.4139Z"/>
</mask>
<path fill-rule="evenodd" clip-rule="evenodd" d="M8 0C3.58172 0 0 3.58172 0 8V40C0 44.4183 3.58172 48 8 48H40C44.4183 48 48 44.4183 48 40V8C48 3.58172 44.4183 0 40 0H8ZM30.4139 7.5L30.4137 7.50037L31.162 7.50049L31.1619 7.5H36.6598L40.94 36.3545H35.4422L32.0951 13.7907L26.0207 39.9706H20.4859L26.4249 14.3861L13.6989 36.3545H7.5L24.215 7.5H28.0234H30.4139Z" fill="#CCCCCC"/>
<path d="M30.4137 7.50037L29.549 6.99808L28.6765 8.5001L30.4135 8.50037L30.4137 7.50037ZM30.4139 7.5L31.2786 8.00229L32.1513 6.5H30.4139V7.5ZM31.162 7.50049L31.1619 8.50049L32.3203 8.50067L32.1513 7.35464L31.162 7.50049ZM31.1619 7.5V6.5H30.0037L30.1726 7.64585L31.1619 7.5ZM36.6598 7.5L37.649 7.35327L37.5224 6.5H36.6598V7.5ZM40.94 36.3545V37.3545H42.0993L41.9292 36.2078L40.94 36.3545ZM35.4422 36.3545L34.453 36.5013L34.5796 37.3545H35.4422V36.3545ZM32.0951 13.7907L33.0843 13.644L31.121 13.5647L32.0951 13.7907ZM26.0207 39.9706V40.9706H26.8152L26.9948 40.1966L26.0207 39.9706ZM20.4859 39.9706L19.5118 39.7444L19.2272 40.9706H20.4859V39.9706ZM26.4249 14.3861L27.399 14.6122L25.5596 13.8848L26.4249 14.3861ZM13.6989 36.3545V37.3545H14.2753L14.5642 36.8558L13.6989 36.3545ZM7.5 36.3545L6.6347 35.8533L5.76505 37.3545H7.5V36.3545ZM24.215 7.5V6.5H23.6386L23.3497 6.99875L24.215 7.5ZM1 8C1 4.13401 4.13401 1 8 1V-1C3.02944 -1 -1 3.02944 -1 8H1ZM1 40V8H-1V40H1ZM8 47C4.13401 47 1 43.866 1 40H-1C-1 44.9706 3.02944 49 8 49V47ZM40 47H8V49H40V47ZM47 40C47 43.866 43.866 47 40 47V49C44.9706 49 49 44.9706 49 40H47ZM47 8V40H49V8H47ZM40 1C43.866 1 47 4.13401 47 8H49C49 3.02944 44.9706 -1 40 -1V1ZM8 1H40V-1H8V1ZM31.2784 8.00267L31.2786 8.00229L29.5492 6.99771L29.549 6.99808L31.2784 8.00267ZM31.1622 6.50049L30.4138 6.50037L30.4135 8.50037L31.1619 8.50049L31.1622 6.50049ZM30.1726 7.64585L30.1727 7.64634L32.1513 7.35464L32.1513 7.35415L30.1726 7.64585ZM36.6598 6.5H31.1619V8.5H36.6598V6.5ZM41.9292 36.2078L37.649 7.35327L35.6706 7.64673L39.9508 36.5013L41.9292 36.2078ZM35.4422 37.3545H40.94V35.3545H35.4422V37.3545ZM31.1059 13.9375L34.453 36.5013L36.4313 36.2078L33.0843 13.644L31.1059 13.9375ZM26.9948 40.1966L33.0692 14.0168L31.121 13.5647L25.0466 39.7445L26.9948 40.1966ZM20.4859 40.9706H26.0207V38.9706H20.4859V40.9706ZM25.4508 14.16L19.5118 39.7444L21.46 40.1967L27.399 14.6122L25.4508 14.16ZM14.5642 36.8558L27.2902 14.8873L25.5596 13.8848L12.8336 35.8533L14.5642 36.8558ZM7.5 37.3545H13.6989V35.3545H7.5V37.3545ZM23.3497 6.99875L6.6347 35.8533L8.3653 36.8558L25.0803 8.00125L23.3497 6.99875ZM28.0234 6.5H24.215V8.5H28.0234V6.5ZM30.4139 6.5H28.0234V8.5H30.4139V6.5Z" fill="#888888" mask="url(#path-1-inside-1_527_117)"/>
</svg>
