<svg width="32" height="32" viewBox="0 0 32 32" fill="none" xmlns="http://www.w3.org/2000/svg">
<path d="M16.3143 27.4774C14.1919 27.4774 12.211 27.1378 10.3716 26.4586C8.56046 25.7512 7.06064 24.7466 5.8721 23.4449L9.26792 19.4548C9.97539 20.3603 10.9092 21.1244 12.0695 21.7469C13.258 22.3412 14.5739 22.6383 16.0171 22.6383C16.8944 22.6383 17.616 22.511 18.182 22.2563C18.7479 22.0016 19.0309 21.6054 19.0309 21.0678C19.0309 20.6716 18.8894 20.3603 18.6064 20.1339C18.3235 19.8792 17.7575 19.667 16.9085 19.4972L13.9372 18.9029C11.2771 18.3653 9.38112 17.5729 8.24918 16.5259C7.14553 15.4505 6.59371 14.0497 6.59371 12.3235C6.59371 11.1633 6.94744 10.0596 7.65491 9.01259C8.36237 7.93725 9.45187 7.07414 10.9234 6.42327C12.3949 5.74411 14.2768 5.40452 16.569 5.40452C18.7196 5.40452 20.6156 5.71581 22.257 6.33838C23.8983 6.96095 25.2 7.8665 26.1622 9.05504L22.7239 12.9602C22.0447 12.1113 21.1675 11.4463 20.0921 10.9652C19.0168 10.4841 17.9414 10.2436 16.8661 10.2436C16.1869 10.2436 15.6068 10.3143 15.1257 10.4558C14.6729 10.569 14.3334 10.7388 14.107 10.9652C13.8806 11.1916 13.7674 11.4746 13.7674 11.8141C13.7674 12.182 13.9372 12.5075 14.2768 12.7904C14.6447 13.0451 15.3097 13.2715 16.2718 13.4696L20.1346 14.2337C22.3136 14.6299 23.8841 15.3515 24.8463 16.3985C25.8084 17.4456 26.2895 18.7048 26.2895 20.1764C26.2895 21.563 25.9216 22.8081 25.1859 23.9118C24.4501 25.0154 23.3465 25.8927 21.8749 26.5435C20.4034 27.1661 18.5499 27.4774 16.3143 27.4774Z" fill="white"/>
<path fill-rule="evenodd" clip-rule="evenodd" d="M9.87276 27.7717L9.86053 27.7669C7.86961 26.9892 6.18323 25.8686 4.83488 24.3919L4 23.4775L8.35192 18.364C7.9628 18.1161 7.60976 17.8477 7.29545 17.5569L7.28206 17.5445L7.26901 17.5318C5.86021 16.1591 5.18919 14.3786 5.18919 12.3235C5.18919 10.8607 5.63969 9.48905 6.48634 8.23336C7.3734 6.88861 8.69608 5.87441 10.3451 5.14328C12.0592 4.3546 14.1568 4 16.569 4C18.8528 4 20.9233 4.33033 22.7551 5.02515C24.5938 5.72261 26.1134 6.76253 27.2538 8.17131L28 9.09307L23.7632 13.9052C24.5912 14.3133 25.3051 14.822 25.8805 15.4482C27.0898 16.7642 27.694 18.3664 27.694 20.1764C27.694 21.827 27.2513 23.3457 26.3545 24.6909C25.4418 26.0599 24.1064 27.0923 22.4431 27.828L22.4327 27.8326L22.4222 27.8371C20.7231 28.5559 18.6681 28.8819 16.3143 28.8819C14.0396 28.8819 11.8926 28.5175 9.88508 27.7762L9.87276 27.7717ZM22.7955 15.0044C22.6819 14.9549 22.5653 14.907 22.4457 14.8608C21.7715 14.6003 21.0012 14.3912 20.1346 14.2337L16.2718 13.4696C15.3097 13.2715 14.6447 13.0451 14.2768 12.7904C13.9372 12.5075 13.7674 12.182 13.7674 11.8141C13.7674 11.4746 13.8806 11.1916 14.107 10.9652C14.3334 10.7388 14.6729 10.569 15.1257 10.4558C15.6068 10.3143 16.1869 10.2436 16.8661 10.2436C17.9414 10.2436 19.0168 10.4841 20.0921 10.9652C20.7024 11.2382 21.2488 11.5704 21.7315 11.9619C22.0994 12.2603 22.4301 12.5931 22.7239 12.9602L26.1622 9.05504C25.2 7.8665 23.8983 6.96095 22.257 6.33838C20.6156 5.71581 18.7196 5.40452 16.569 5.40452C14.2768 5.40452 12.3949 5.74411 10.9234 6.42327C9.45187 7.07414 8.36237 7.93725 7.65491 9.01259C6.94744 10.0596 6.59371 11.1633 6.59371 12.3235C6.59371 14.0497 7.14553 15.4505 8.24918 16.5259C8.5399 16.7948 8.88103 17.0469 9.27257 17.2822C9.32124 17.3115 9.37069 17.3405 9.42092 17.3692C10.5398 18.0093 12.0453 18.5205 13.9372 18.9029L16.9085 19.4972C17.7575 19.667 18.3235 19.8792 18.6064 20.1339C18.8894 20.3603 19.0309 20.6716 19.0309 21.0678C19.0309 21.6054 18.7479 22.0016 18.182 22.2563C17.616 22.511 16.8944 22.6383 16.0171 22.6383C14.5739 22.6383 13.258 22.3412 12.0695 21.7469C11.3782 21.376 10.7673 20.9549 10.2367 20.4835C9.87682 20.1637 9.55388 19.8208 9.26792 19.4548L5.8721 23.4449C7.06064 24.7466 8.56046 25.7512 10.3716 26.4586C12.211 27.1378 14.1919 27.4774 16.3143 27.4774C18.5499 27.4774 20.4034 27.1661 21.8749 26.5435C23.3465 25.8927 24.4501 25.0154 25.1859 23.9118C25.9216 22.8081 26.2895 21.563 26.2895 20.1764C26.2895 18.7048 25.8084 17.4456 24.8463 16.3985C24.3347 15.8418 23.6511 15.3771 22.7955 15.0044ZM12.7155 20.4996C13.6881 20.9823 14.7804 21.2338 16.0171 21.2338C16.613 21.2338 17.0547 21.1643 17.3747 21.0628C17.1928 21.0021 16.9491 20.9377 16.6331 20.8745L13.6603 20.2799L13.6589 20.2796C12.9222 20.1307 12.2247 19.96 11.5709 19.7646C11.9125 20.0265 12.2931 20.2718 12.7155 20.4996ZM15.4826 11.8143L15.4944 11.8114L15.522 11.8033C15.838 11.7103 16.277 11.6481 16.8661 11.6481C17.7256 11.6481 18.6063 11.8391 19.5186 12.2473C19.9395 12.4356 20.3162 12.6542 20.6523 12.9023C20.5677 12.8856 20.4825 12.8694 20.3967 12.8538L16.5498 12.0929C16.0651 11.9929 15.7196 11.8958 15.4826 11.8143Z" fill="black"/>
</svg>
